<svg width="30" height="30" viewBox="0 0 30 30" fill="none" xmlns="http://www.w3.org/2000/svg">
<path d="M24.53 6.36062C22.7775 5.55624 20.8975 4.96374 18.9325 4.62437C18.8969 4.61812 18.8612 4.63437 18.8425 4.66687C18.6006 5.09687 18.3331 5.65749 18.1456 6.09874C16.0319 5.78249 13.9287 5.78249 11.8587 6.09874C11.6712 5.64812 11.3937 5.09687 11.1506 4.66687C11.1319 4.63499 11.0962 4.61874 11.0606 4.62437C9.09623 4.96249 7.21686 5.55499 5.46311 6.36062C5.44811 6.36687 5.43498 6.37812 5.42623 6.39249C1.86124 11.7187 0.884361 16.9144 1.36374 22.045C1.36561 22.07 1.37999 22.0944 1.39936 22.1094C3.75123 23.8369 6.02998 24.8856 8.26623 25.5806C8.30186 25.5912 8.33998 25.5787 8.36248 25.5487C8.89123 24.8262 9.36311 24.065 9.76748 23.2637C9.79123 23.2169 9.76873 23.1612 9.71998 23.1425C8.97186 22.8587 8.25998 22.5131 7.57498 22.12C7.52061 22.0881 7.51623 22.0106 7.56623 21.9737C7.71061 21.8656 7.85436 21.7531 7.99248 21.64C8.01748 21.6194 8.05186 21.615 8.08123 21.6281C12.5819 23.6831 17.4544 23.6831 21.9019 21.6281C21.9312 21.6137 21.9656 21.6181 21.9919 21.6387C22.1294 21.7525 22.2737 21.8656 22.4187 21.9737C22.4687 22.0106 22.4656 22.0881 22.4112 22.12C21.7262 22.5206 21.0137 22.8587 20.265 23.1412C20.2162 23.16 20.1944 23.2162 20.2181 23.2637C20.6312 24.0637 21.1025 24.825 21.6219 25.5475C21.6437 25.5781 21.6825 25.5912 21.7181 25.58C23.965 24.885 26.2437 23.8362 28.5956 22.1087C28.6162 22.0937 28.6294 22.0706 28.6312 22.0456C29.2044 16.1137 27.6706 10.9612 24.5656 6.39312C24.5581 6.37812 24.545 6.36687 24.53 6.36062ZM10.4394 18.9206C9.08436 18.9206 7.96811 17.6769 7.96811 16.1487C7.96811 14.6206 9.06311 13.3769 10.4394 13.3769C11.8269 13.3769 12.9325 14.6319 12.9106 16.1487C12.9112 17.6762 11.8162 18.9206 10.4394 18.9206ZM19.5775 18.9206C18.2225 18.9206 17.1062 17.6769 17.1062 16.1487C17.1062 14.6206 18.2012 13.3769 19.5775 13.3769C20.965 13.3769 22.0706 14.6319 22.0487 16.1487C22.0487 17.6762 20.965 18.9206 19.5775 18.9206Z" fill="white"/>
</svg>
