<svg width="18" height="18" viewBox="0 0 18 18" fill="none" xmlns="http://www.w3.org/2000/svg">
<path d="M16.2575 7.60106L17.1433 8.48685C17.5183 8.86191 17.5183 9.4684 17.1433 9.83948L9.3906 17.5961C9.01553 17.9712 8.40904 17.9712 8.03797 17.5961L0.281299 9.83948C-0.0937663 9.46441 -0.0937663 8.85792 0.281299 8.48685L1.16709 7.60106C1.54615 7.222 2.1646 7.22998 2.53568 7.61702L7.11626 12.425V0.957613C7.11626 0.426936 7.5432 0 8.07388 0H9.35069C9.88137 0 10.3083 0.426936 10.3083 0.957613V12.425L14.8889 7.61702C15.26 7.22599 15.8784 7.21801 16.2575 7.60106Z" fill="url(#paint0_linear_873_1298)"/>
<defs>
<linearGradient id="paint0_linear_873_1298" x1="8.71229" y1="0" x2="8.71229" y2="17.8774" gradientUnits="userSpaceOnUse">
<stop stop-color="white" stop-opacity="0.5"/>
<stop offset="1" stop-color="white"/>
</linearGradient>
</defs>
</svg>
